<mxfile host="app.diagrams.net" modified="2020-07-30T06:49:01.099Z" agent="5.0 (X11)" etag="jkDYOu3QKwnhQAqoPopa" version="13.5.5" type="github">
  <diagram id="C5RBs43oDa-KdzZeNtuy" name="Page-1">
    <mxGraphModel dx="868" dy="434" grid="1" gridSize="10" guides="1" tooltips="1" connect="1" arrows="1" fold="1" page="1" pageScale="1" pageWidth="827" pageHeight="1169" math="0" shadow="0" extFonts="Sans Serif^https://fonts.googleapis.com/css?family=Sans+Serif">
      <root>
        <mxCell id="WIyWlLk6GJQsqaUBKTNV-0" />
        <mxCell id="WIyWlLk6GJQsqaUBKTNV-1" parent="WIyWlLk6GJQsqaUBKTNV-0" />
        <mxCell id="ZrjBafvAuNLLrweYickV-0" value="&lt;font face=&quot;Sans Serif&quot;&gt;&lt;b&gt;ADNI Dataset&lt;br&gt;&lt;/b&gt;&lt;/font&gt;" style="rounded=1;whiteSpace=wrap;html=1;fillColor=#dae8fc;gradientColor=#7ea6e0;strokeColor=#6c8ebf;" vertex="1" parent="WIyWlLk6GJQsqaUBKTNV-1">
          <mxGeometry x="290" y="80" width="180" height="60" as="geometry" />
        </mxCell>
        <mxCell id="ZrjBafvAuNLLrweYickV-1" value="" style="endArrow=classic;html=1;strokeColor=#000000;fillColor=#000000;exitX=0.5;exitY=1;exitDx=0;exitDy=0;" edge="1" parent="WIyWlLk6GJQsqaUBKTNV-1" source="ZrjBafvAuNLLrweYickV-0">
          <mxGeometry width="50" height="50" relative="1" as="geometry">
            <mxPoint x="400" y="180" as="sourcePoint" />
            <mxPoint x="380" y="190" as="targetPoint" />
          </mxGeometry>
        </mxCell>
        <mxCell id="ZrjBafvAuNLLrweYickV-2" value="&lt;b&gt;Data in .nii extension&lt;/b&gt;" style="text;html=1;strokeColor=none;fillColor=none;align=center;verticalAlign=middle;whiteSpace=wrap;rounded=0;" vertex="1" parent="WIyWlLk6GJQsqaUBKTNV-1">
          <mxGeometry x="240" y="160" width="130" height="20" as="geometry" />
        </mxCell>
        <mxCell id="ZrjBafvAuNLLrweYickV-3" value="" style="rounded=1;whiteSpace=wrap;html=1;fillColor=#cce5ff;strokeColor=#36393d;" vertex="1" parent="WIyWlLk6GJQsqaUBKTNV-1">
          <mxGeometry x="230" y="200" width="340" height="140" as="geometry" />
        </mxCell>
        <mxCell id="ZrjBafvAuNLLrweYickV-4" value="&lt;div&gt;&lt;b&gt;Noise Removal&lt;/b&gt;&lt;/div&gt;&lt;div&gt;&lt;b&gt;&amp;amp; Normalization&lt;/b&gt;&lt;br&gt;&lt;/div&gt;&lt;div&gt;&lt;br&gt;&lt;/div&gt;&lt;div&gt;Skull Stripping&lt;/div&gt;&lt;div&gt;Bias Correction&lt;br&gt;&lt;/div&gt;" style="rounded=1;whiteSpace=wrap;html=1;fillColor=#dae8fc;gradientColor=#7ea6e0;strokeColor=#6c8ebf;" vertex="1" parent="WIyWlLk6GJQsqaUBKTNV-1">
          <mxGeometry x="260" y="222.5" width="110" height="95" as="geometry" />
        </mxCell>
        <mxCell id="ZrjBafvAuNLLrweYickV-6" value="&lt;div&gt;&lt;b&gt;Segmentation&lt;br&gt;&lt;/b&gt;&lt;/div&gt;&lt;div&gt;&lt;br&gt;&lt;/div&gt;&lt;div&gt;Using Otsu Threshold and HMRF Tissue Classifier&lt;br&gt;&lt;/div&gt;" style="rounded=1;whiteSpace=wrap;html=1;fillColor=#dae8fc;gradientColor=#7ea6e0;strokeColor=#6c8ebf;" vertex="1" parent="WIyWlLk6GJQsqaUBKTNV-1">
          <mxGeometry x="430" y="220" width="110" height="100" as="geometry" />
        </mxCell>
        <mxCell id="ZrjBafvAuNLLrweYickV-7" value="" style="endArrow=classic;html=1;strokeColor=#000000;fillColor=#000000;" edge="1" parent="WIyWlLk6GJQsqaUBKTNV-1" source="ZrjBafvAuNLLrweYickV-3">
          <mxGeometry width="50" height="50" relative="1" as="geometry">
            <mxPoint x="390" y="250" as="sourcePoint" />
            <mxPoint x="440" y="200" as="targetPoint" />
          </mxGeometry>
        </mxCell>
        <mxCell id="ZrjBafvAuNLLrweYickV-8" value="" style="endArrow=classic;html=1;strokeColor=#000000;fillColor=#000000;exitX=1;exitY=0.5;exitDx=0;exitDy=0;" edge="1" parent="WIyWlLk6GJQsqaUBKTNV-1" source="ZrjBafvAuNLLrweYickV-4">
          <mxGeometry width="50" height="50" relative="1" as="geometry">
            <mxPoint x="630" y="100" as="sourcePoint" />
            <mxPoint x="430" y="270" as="targetPoint" />
            <Array as="points" />
          </mxGeometry>
        </mxCell>
        <mxCell id="ZrjBafvAuNLLrweYickV-9" value="&lt;b&gt;Preprocessing data&lt;/b&gt;" style="text;html=1;strokeColor=none;fillColor=none;align=center;verticalAlign=middle;whiteSpace=wrap;rounded=0;" vertex="1" parent="WIyWlLk6GJQsqaUBKTNV-1">
          <mxGeometry x="80" y="260" width="140" height="20" as="geometry" />
        </mxCell>
        <mxCell id="ZrjBafvAuNLLrweYickV-17" value="" style="endArrow=none;html=1;strokeColor=#000000;fillColor=#000000;" edge="1" parent="WIyWlLk6GJQsqaUBKTNV-1">
          <mxGeometry width="50" height="50" relative="1" as="geometry">
            <mxPoint x="380" y="342" as="sourcePoint" />
            <mxPoint x="380" y="400" as="targetPoint" />
          </mxGeometry>
        </mxCell>
        <mxCell id="ZrjBafvAuNLLrweYickV-20" value="" style="endArrow=none;html=1;strokeColor=#000000;fillColor=#000000;" edge="1" parent="WIyWlLk6GJQsqaUBKTNV-1">
          <mxGeometry width="50" height="50" relative="1" as="geometry">
            <mxPoint x="260" y="390" as="sourcePoint" />
            <mxPoint x="510" y="390" as="targetPoint" />
          </mxGeometry>
        </mxCell>
        <mxCell id="ZrjBafvAuNLLrweYickV-21" value="" style="endArrow=classic;html=1;strokeColor=#000000;fillColor=#000000;" edge="1" parent="WIyWlLk6GJQsqaUBKTNV-1">
          <mxGeometry width="50" height="50" relative="1" as="geometry">
            <mxPoint x="380" y="390" as="sourcePoint" />
            <mxPoint x="380" y="440" as="targetPoint" />
          </mxGeometry>
        </mxCell>
        <mxCell id="ZrjBafvAuNLLrweYickV-22" value="" style="endArrow=classic;html=1;strokeColor=#000000;fillColor=#000000;" edge="1" parent="WIyWlLk6GJQsqaUBKTNV-1">
          <mxGeometry width="50" height="50" relative="1" as="geometry">
            <mxPoint x="260" y="390" as="sourcePoint" />
            <mxPoint x="260" y="440" as="targetPoint" />
          </mxGeometry>
        </mxCell>
        <mxCell id="ZrjBafvAuNLLrweYickV-23" value="" style="endArrow=classic;html=1;strokeColor=#000000;fillColor=#000000;" edge="1" parent="WIyWlLk6GJQsqaUBKTNV-1">
          <mxGeometry width="50" height="50" relative="1" as="geometry">
            <mxPoint x="510" y="390" as="sourcePoint" />
            <mxPoint x="510" y="440" as="targetPoint" />
          </mxGeometry>
        </mxCell>
        <mxCell id="ZrjBafvAuNLLrweYickV-24" value="&lt;b&gt;2D Image Dataset&lt;/b&gt;" style="text;html=1;strokeColor=none;fillColor=none;align=center;verticalAlign=middle;whiteSpace=wrap;rounded=0;" vertex="1" parent="WIyWlLk6GJQsqaUBKTNV-1">
          <mxGeometry x="370" y="360" width="160" height="20" as="geometry" />
        </mxCell>
        <mxCell id="ZrjBafvAuNLLrweYickV-25" value="&lt;div style=&quot;font-size: 11px&quot;&gt;&lt;font face=&quot;Sans Serif&quot;&gt;&lt;b&gt;&lt;font style=&quot;font-size: 11px&quot;&gt;Axial&lt;/font&gt;&lt;/b&gt;&lt;/font&gt;&lt;/div&gt;&lt;div style=&quot;font-size: 11px&quot;&gt;&lt;font face=&quot;Sans Serif&quot;&gt;&lt;b&gt;&lt;font style=&quot;font-size: 11px&quot;&gt;Classifier&lt;/font&gt;&lt;/b&gt;&lt;/font&gt;&lt;/div&gt;&lt;div style=&quot;font-size: 11px&quot;&gt;&lt;font face=&quot;Sans Serif&quot;&gt;&lt;b&gt;&lt;font style=&quot;font-size: 11px&quot;&gt;Dataset&lt;/font&gt;&lt;/b&gt;&lt;/font&gt;&lt;br&gt;&lt;/div&gt;" style="rounded=1;whiteSpace=wrap;html=1;fillColor=#dae8fc;gradientColor=#7ea6e0;strokeColor=#6c8ebf;" vertex="1" parent="WIyWlLk6GJQsqaUBKTNV-1">
          <mxGeometry x="220" y="440" width="90" height="60" as="geometry" />
        </mxCell>
        <mxCell id="ZrjBafvAuNLLrweYickV-26" value="&lt;div style=&quot;font-size: 11px&quot;&gt;&lt;font face=&quot;Sans Serif&quot;&gt;&lt;b&gt;&lt;font style=&quot;font-size: 11px&quot;&gt;Coronnal&lt;/font&gt;&lt;/b&gt;&lt;/font&gt;&lt;/div&gt;&lt;div style=&quot;font-size: 11px&quot;&gt;&lt;font face=&quot;Sans Serif&quot;&gt;&lt;b&gt;&lt;font style=&quot;font-size: 11px&quot;&gt;Classifier&lt;/font&gt;&lt;/b&gt;&lt;/font&gt;&lt;/div&gt;&lt;div style=&quot;font-size: 11px&quot;&gt;&lt;font face=&quot;Sans Serif&quot;&gt;&lt;b&gt;&lt;font style=&quot;font-size: 11px&quot;&gt;Dataset&lt;/font&gt;&lt;/b&gt;&lt;/font&gt;&lt;br&gt;&lt;/div&gt;" style="rounded=1;whiteSpace=wrap;html=1;fillColor=#dae8fc;gradientColor=#7ea6e0;strokeColor=#6c8ebf;" vertex="1" parent="WIyWlLk6GJQsqaUBKTNV-1">
          <mxGeometry x="335" y="440" width="90" height="60" as="geometry" />
        </mxCell>
        <mxCell id="ZrjBafvAuNLLrweYickV-27" value="&lt;div style=&quot;font-size: 11px&quot;&gt;&lt;font face=&quot;Sans Serif&quot;&gt;&lt;b&gt;&lt;font style=&quot;font-size: 11px&quot;&gt;Saggital&lt;/font&gt;&lt;/b&gt;&lt;/font&gt;&lt;/div&gt;&lt;div style=&quot;font-size: 11px&quot;&gt;&lt;font face=&quot;Sans Serif&quot;&gt;&lt;b&gt;&lt;font style=&quot;font-size: 11px&quot;&gt;Classifier&lt;/font&gt;&lt;/b&gt;&lt;/font&gt;&lt;/div&gt;&lt;div style=&quot;font-size: 11px&quot;&gt;&lt;font face=&quot;Sans Serif&quot;&gt;&lt;b&gt;&lt;font style=&quot;font-size: 11px&quot;&gt;Dataset&lt;/font&gt;&lt;/b&gt;&lt;/font&gt;&lt;br&gt;&lt;/div&gt;" style="rounded=1;whiteSpace=wrap;html=1;fillColor=#dae8fc;gradientColor=#7ea6e0;strokeColor=#6c8ebf;" vertex="1" parent="WIyWlLk6GJQsqaUBKTNV-1">
          <mxGeometry x="460" y="440" width="90" height="60" as="geometry" />
        </mxCell>
        <mxCell id="ZrjBafvAuNLLrweYickV-28" value="&lt;b&gt;Each dataset has three classes - AD, CN, MCI&lt;/b&gt;" style="text;html=1;strokeColor=none;fillColor=none;align=center;verticalAlign=middle;whiteSpace=wrap;rounded=0;" vertex="1" parent="WIyWlLk6GJQsqaUBKTNV-1">
          <mxGeometry x="35" y="460" width="140" height="20" as="geometry" />
        </mxCell>
        <mxCell id="ZrjBafvAuNLLrweYickV-29" value="" style="endArrow=classic;html=1;strokeColor=#000000;fillColor=#000000;" edge="1" parent="WIyWlLk6GJQsqaUBKTNV-1">
          <mxGeometry width="50" height="50" relative="1" as="geometry">
            <mxPoint x="260" y="500" as="sourcePoint" />
            <mxPoint x="260" y="550" as="targetPoint" />
          </mxGeometry>
        </mxCell>
        <mxCell id="ZrjBafvAuNLLrweYickV-30" value="" style="endArrow=classic;html=1;strokeColor=#000000;fillColor=#000000;" edge="1" parent="WIyWlLk6GJQsqaUBKTNV-1">
          <mxGeometry width="50" height="50" relative="1" as="geometry">
            <mxPoint x="379.5" y="500" as="sourcePoint" />
            <mxPoint x="379.5" y="550" as="targetPoint" />
          </mxGeometry>
        </mxCell>
        <mxCell id="ZrjBafvAuNLLrweYickV-31" value="" style="endArrow=classic;html=1;strokeColor=#000000;fillColor=#000000;" edge="1" parent="WIyWlLk6GJQsqaUBKTNV-1">
          <mxGeometry width="50" height="50" relative="1" as="geometry">
            <mxPoint x="510" y="500" as="sourcePoint" />
            <mxPoint x="510" y="550" as="targetPoint" />
          </mxGeometry>
        </mxCell>
        <mxCell id="ZrjBafvAuNLLrweYickV-32" value="&lt;div style=&quot;font-size: 11px&quot;&gt;&lt;font face=&quot;Sans Serif&quot;&gt;&lt;b&gt;&lt;font style=&quot;font-size: 11px&quot;&gt;Simple Axial&lt;/font&gt;&lt;/b&gt;&lt;/font&gt;&lt;/div&gt;&lt;div style=&quot;font-size: 11px&quot;&gt;&lt;font face=&quot;Sans Serif&quot;&gt;&lt;b&gt;&lt;font style=&quot;font-size: 11px&quot;&gt;CNN&lt;/font&gt;&lt;/b&gt;&lt;/font&gt;&lt;/div&gt;&lt;div style=&quot;font-size: 11px&quot;&gt;&lt;font face=&quot;Sans Serif&quot;&gt;&lt;b&gt;Network&lt;/b&gt;&lt;/font&gt;&lt;br&gt;&lt;/div&gt;" style="rounded=1;whiteSpace=wrap;html=1;fillColor=#dae8fc;gradientColor=#7ea6e0;strokeColor=#6c8ebf;" vertex="1" parent="WIyWlLk6GJQsqaUBKTNV-1">
          <mxGeometry x="210" y="555" width="90" height="60" as="geometry" />
        </mxCell>
        <mxCell id="ZrjBafvAuNLLrweYickV-33" value="&lt;div style=&quot;font-size: 11px&quot;&gt;&lt;font face=&quot;Sans Serif&quot;&gt;&lt;b&gt;&lt;font style=&quot;font-size: 11px&quot;&gt;Simple Coronnal&lt;/font&gt;&lt;/b&gt;&lt;/font&gt;&lt;/div&gt;&lt;div style=&quot;font-size: 11px&quot;&gt;&lt;font face=&quot;Sans Serif&quot;&gt;&lt;b&gt;&lt;font style=&quot;font-size: 11px&quot;&gt;CNN&lt;/font&gt;&lt;/b&gt;&lt;/font&gt;&lt;/div&gt;&lt;div style=&quot;font-size: 11px&quot;&gt;&lt;font face=&quot;Sans Serif&quot;&gt;&lt;b&gt;Network&lt;/b&gt;&lt;/font&gt;&lt;br&gt;&lt;/div&gt;" style="rounded=1;whiteSpace=wrap;html=1;fillColor=#dae8fc;gradientColor=#7ea6e0;strokeColor=#6c8ebf;" vertex="1" parent="WIyWlLk6GJQsqaUBKTNV-1">
          <mxGeometry x="335" y="555" width="90" height="60" as="geometry" />
        </mxCell>
        <mxCell id="ZrjBafvAuNLLrweYickV-34" value="&lt;div style=&quot;font-size: 11px&quot;&gt;&lt;font face=&quot;Sans Serif&quot;&gt;&lt;b&gt;&lt;font style=&quot;font-size: 11px&quot;&gt;Simple Saggital&lt;/font&gt;&lt;/b&gt;&lt;/font&gt;&lt;/div&gt;&lt;div style=&quot;font-size: 11px&quot;&gt;&lt;font face=&quot;Sans Serif&quot;&gt;&lt;b&gt;&lt;font style=&quot;font-size: 11px&quot;&gt;CNN&lt;/font&gt;&lt;/b&gt;&lt;/font&gt;&lt;/div&gt;&lt;div style=&quot;font-size: 11px&quot;&gt;&lt;font face=&quot;Sans Serif&quot;&gt;&lt;b&gt;Network&lt;/b&gt;&lt;/font&gt;&lt;br&gt;&lt;/div&gt;" style="rounded=1;whiteSpace=wrap;html=1;fillColor=#dae8fc;gradientColor=#7ea6e0;strokeColor=#6c8ebf;" vertex="1" parent="WIyWlLk6GJQsqaUBKTNV-1">
          <mxGeometry x="460" y="550" width="90" height="60" as="geometry" />
        </mxCell>
        <mxCell id="ZrjBafvAuNLLrweYickV-36" value="" style="endArrow=none;html=1;strokeColor=#000000;fillColor=#000000;entryX=0.5;entryY=1;entryDx=0;entryDy=0;" edge="1" parent="WIyWlLk6GJQsqaUBKTNV-1">
          <mxGeometry width="50" height="50" relative="1" as="geometry">
            <mxPoint x="380" y="660" as="sourcePoint" />
            <mxPoint x="379.5" y="615" as="targetPoint" />
          </mxGeometry>
        </mxCell>
        <mxCell id="ZrjBafvAuNLLrweYickV-37" value="" style="endArrow=none;html=1;strokeColor=#000000;fillColor=#000000;entryX=0.5;entryY=1;entryDx=0;entryDy=0;" edge="1" parent="WIyWlLk6GJQsqaUBKTNV-1">
          <mxGeometry width="50" height="50" relative="1" as="geometry">
            <mxPoint x="260" y="660" as="sourcePoint" />
            <mxPoint x="260" y="610" as="targetPoint" />
          </mxGeometry>
        </mxCell>
        <mxCell id="ZrjBafvAuNLLrweYickV-38" value="" style="endArrow=none;html=1;strokeColor=#000000;fillColor=#000000;" edge="1" parent="WIyWlLk6GJQsqaUBKTNV-1">
          <mxGeometry width="50" height="50" relative="1" as="geometry">
            <mxPoint x="260" y="660" as="sourcePoint" />
            <mxPoint x="510" y="660" as="targetPoint" />
          </mxGeometry>
        </mxCell>
        <mxCell id="ZrjBafvAuNLLrweYickV-39" value="" style="endArrow=none;html=1;strokeColor=#000000;fillColor=#000000;entryX=0.5;entryY=1;entryDx=0;entryDy=0;" edge="1" parent="WIyWlLk6GJQsqaUBKTNV-1">
          <mxGeometry width="50" height="50" relative="1" as="geometry">
            <mxPoint x="510" y="660" as="sourcePoint" />
            <mxPoint x="510" y="610" as="targetPoint" />
          </mxGeometry>
        </mxCell>
        <mxCell id="ZrjBafvAuNLLrweYickV-40" value="" style="endArrow=classic;html=1;strokeColor=#000000;fillColor=#000000;" edge="1" parent="WIyWlLk6GJQsqaUBKTNV-1">
          <mxGeometry width="50" height="50" relative="1" as="geometry">
            <mxPoint x="380" y="660" as="sourcePoint" />
            <mxPoint x="380" y="710" as="targetPoint" />
          </mxGeometry>
        </mxCell>
        <mxCell id="ZrjBafvAuNLLrweYickV-41" value="&lt;div&gt;&lt;b&gt;Each model is trained with the&lt;/b&gt;&lt;/div&gt;&lt;div&gt;&lt;b&gt;corresponding dataset&lt;br&gt;&lt;/b&gt;&lt;/div&gt;" style="text;html=1;strokeColor=none;fillColor=none;align=center;verticalAlign=middle;whiteSpace=wrap;rounded=0;" vertex="1" parent="WIyWlLk6GJQsqaUBKTNV-1">
          <mxGeometry x="10" y="575" width="190" height="20" as="geometry" />
        </mxCell>
        <mxCell id="ZrjBafvAuNLLrweYickV-42" value="&lt;b&gt;Combined Classifier&lt;/b&gt;" style="rounded=1;whiteSpace=wrap;html=1;fillColor=#dae8fc;gradientColor=#7ea6e0;strokeColor=#6c8ebf;" vertex="1" parent="WIyWlLk6GJQsqaUBKTNV-1">
          <mxGeometry x="290" y="710" width="180" height="60" as="geometry" />
        </mxCell>
        <mxCell id="ZrjBafvAuNLLrweYickV-44" value="&lt;b&gt;Fusing Outputs&lt;/b&gt;" style="text;html=1;strokeColor=none;fillColor=none;align=center;verticalAlign=middle;whiteSpace=wrap;rounded=0;" vertex="1" parent="WIyWlLk6GJQsqaUBKTNV-1">
          <mxGeometry x="260" y="670" width="140" height="20" as="geometry" />
        </mxCell>
        <mxCell id="ZrjBafvAuNLLrweYickV-45" style="edgeStyle=orthogonalEdgeStyle;curved=1;orthogonalLoop=1;jettySize=auto;html=1;exitX=0.5;exitY=1;exitDx=0;exitDy=0;strokeColor=#000000;fillColor=#000000;" edge="1" parent="WIyWlLk6GJQsqaUBKTNV-1" source="ZrjBafvAuNLLrweYickV-44" target="ZrjBafvAuNLLrweYickV-44">
          <mxGeometry relative="1" as="geometry" />
        </mxCell>
        <mxCell id="ZrjBafvAuNLLrweYickV-46" value="" style="endArrow=classic;html=1;strokeColor=#000000;fillColor=#000000;" edge="1" parent="WIyWlLk6GJQsqaUBKTNV-1">
          <mxGeometry width="50" height="50" relative="1" as="geometry">
            <mxPoint x="379.5" y="770" as="sourcePoint" />
            <mxPoint x="379.5" y="820" as="targetPoint" />
          </mxGeometry>
        </mxCell>
        <mxCell id="ZrjBafvAuNLLrweYickV-47" value="&lt;font face=&quot;Sans Serif&quot;&gt;&lt;b&gt;Prediction&lt;/b&gt;&lt;/font&gt;" style="rounded=1;whiteSpace=wrap;html=1;fillColor=#fff2cc;gradientColor=#ffd966;strokeColor=#d6b656;" vertex="1" parent="WIyWlLk6GJQsqaUBKTNV-1">
          <mxGeometry x="310" y="820" width="130" height="60" as="geometry" />
        </mxCell>
        <mxCell id="ZrjBafvAuNLLrweYickV-48" value="&lt;b&gt;Trained Network predicts output&lt;/b&gt;" style="text;html=1;strokeColor=none;fillColor=none;align=center;verticalAlign=middle;whiteSpace=wrap;rounded=0;" vertex="1" parent="WIyWlLk6GJQsqaUBKTNV-1">
          <mxGeometry x="400" y="790" width="160" height="20" as="geometry" />
        </mxCell>
      </root>
    </mxGraphModel>
  </diagram>
</mxfile>
